<svg id="visual" viewBox="0 0 960 540" width="960" height="540" xmlns="http://www.w3.org/2000/svg" xmlns:xlink="http://www.w3.org/1999/xlink" version="1.1"><g transform="translate(477.1845138226349 236.74487308648565)"><path d="M197.5 -216.8C250.3 -191 283.7 -123.5 292.9 -54.2C302 15.1 287 86 252.4 145.5C217.8 204.9 163.6 252.8 99.7 277.7C35.8 302.6 -37.9 304.5 -96.9 277.9C-156 251.4 -200.6 196.4 -237 135.7C-273.4 74.9 -301.6 8.4 -285 -44.1C-268.4 -96.5 -206.8 -134.8 -151.8 -160.3C-96.8 -185.7 -48.4 -198.3 11.9 -212.6C72.3 -226.8 144.6 -242.7 197.5 -216.8" fill="#4FACF7"></path></g></svg>