<svg xmlns="http://www.w3.org/2000/svg" version="1.1" xmlns:xlink="http://www.w3.org/1999/xlink" xmlns:svgjs="http://svgjs.dev/svgjs" viewBox="0 0 800 800" opacity="1" width="800" height="800"><g stroke-width="10" stroke="hsl(261, 60%, 38%)" fill="none"><circle r="12.5" cx="0" cy="0" fill="hsl(261, 60%, 38%)" stroke="none"></circle><circle r="12.5" cx="80" cy="0" fill="hsl(261, 60%, 38%)" stroke="none"></circle><circle r="12.5" cx="160" cy="0" fill="hsl(261, 60%, 38%)" stroke="none"></circle><circle r="12.5" cx="240" cy="0" fill="hsl(261, 60%, 38%)" stroke="none"></circle><circle r="12.5" cx="320" cy="0" fill="hsl(261, 60%, 38%)" stroke="none"></circle><circle r="12.5" cx="400" cy="0" fill="hsl(261, 60%, 38%)" stroke="none"></circle><circle r="12.5" cx="480" cy="0" fill="hsl(261, 60%, 38%)" stroke="none"></circle><circle r="12.5" cx="560" cy="0" fill="hsl(261, 60%, 38%)" stroke="none"></circle><circle r="12.5" cx="640" cy="0" fill="hsl(261, 60%, 38%)" stroke="none"></circle><circle r="12.5" cx="720" cy="0" fill="hsl(261, 60%, 38%)" stroke="none"></circle><circle r="12.5" cx="800" cy="0" fill="hsl(261, 60%, 38%)" stroke="none"></circle><circle r="12.5" cx="0" cy="53.333333333333336" fill="hsl(261, 60%, 38%)" stroke="none"></circle><circle r="12.5" cx="80" cy="53.333333333333336" fill="hsl(261, 60%, 38%)" stroke="none"></circle><circle r="12.5" cx="160" cy="53.333333333333336" fill="hsl(261, 60%, 38%)" stroke="none"></circle><circle r="12.5" cx="240" cy="53.333333333333336" fill="hsl(261, 60%, 38%)" stroke="none"></circle><circle r="12.5" cx="320" cy="53.333333333333336" fill="hsl(261, 60%, 38%)" stroke="none"></circle><circle r="12.5" cx="400" cy="53.333333333333336" fill="hsl(261, 60%, 38%)" stroke="none"></circle><circle r="12.5" cx="480" cy="53.333333333333336" fill="hsl(261, 60%, 38%)" stroke="none"></circle><circle r="12.5" cx="560" cy="53.333333333333336" fill="hsl(261, 60%, 38%)" stroke="none"></circle><circle r="12.5" cx="640" cy="53.333333333333336" fill="hsl(261, 60%, 38%)" stroke="none"></circle><circle r="12.5" cx="720" cy="53.333333333333336" fill="hsl(261, 60%, 38%)" stroke="none"></circle><circle r="12.5" cx="800" cy="53.333333333333336" fill="hsl(261, 60%, 38%)" stroke="none"></circle><circle r="12.5" cx="0" cy="106.66666666666667" fill="hsl(261, 60%, 38%)" stroke="none"></circle><circle r="12.5" cx="80" cy="106.66666666666667" fill="hsl(261, 60%, 38%)" stroke="none"></circle><circle r="12.5" cx="160" cy="106.66666666666667" fill="hsl(261, 60%, 38%)" stroke="none"></circle><circle r="12.5" cx="240" cy="106.66666666666667" fill="hsl(261, 60%, 38%)" stroke="none"></circle><circle r="12.5" cx="320" cy="106.66666666666667" fill="hsl(261, 60%, 38%)" stroke="none"></circle><circle r="12.5" cx="400" cy="106.66666666666667" fill="hsl(261, 60%, 38%)" stroke="none"></circle><circle r="12.5" cx="480" cy="106.66666666666667" fill="hsl(261, 60%, 38%)" stroke="none"></circle><circle r="12.5" cx="560" cy="106.66666666666667" fill="hsl(261, 60%, 38%)" stroke="none"></circle><circle r="12.5" cx="640" cy="106.66666666666667" fill="hsl(261, 60%, 38%)" stroke="none"></circle><circle r="12.5" cx="720" cy="106.66666666666667" fill="hsl(261, 60%, 38%)" stroke="none"></circle><circle r="12.5" cx="800" cy="106.66666666666667" fill="hsl(261, 60%, 38%)" stroke="none"></circle><circle r="12.5" cx="0" cy="160" fill="hsl(261, 60%, 38%)" stroke="none"></circle><circle r="12.5" cx="80" cy="160" fill="hsl(261, 60%, 38%)" stroke="none"></circle><circle r="12.5" cx="160" cy="160" fill="hsl(261, 60%, 38%)" stroke="none"></circle><circle r="12.5" cx="240" cy="160" fill="hsl(261, 60%, 38%)" stroke="none"></circle><circle r="12.5" cx="320" cy="160" fill="hsl(261, 60%, 38%)" stroke="none"></circle><circle r="12.5" cx="400" cy="160" fill="hsl(261, 60%, 38%)" stroke="none"></circle><circle r="12.5" cx="480" cy="160" fill="hsl(261, 60%, 38%)" stroke="none"></circle><circle r="12.5" cx="560" cy="160" fill="hsl(261, 60%, 38%)" stroke="none"></circle><circle r="12.5" cx="640" cy="160" fill="hsl(261, 60%, 38%)" stroke="none"></circle><circle r="12.5" cx="720" cy="160" fill="hsl(261, 60%, 38%)" stroke="none"></circle><circle r="12.5" cx="800" cy="160" fill="hsl(261, 60%, 38%)" stroke="none"></circle><circle r="12.5" cx="0" cy="213.33333333333334" fill="hsl(261, 60%, 38%)" stroke="none"></circle><circle r="12.5" cx="80" cy="213.33333333333334" fill="hsl(261, 60%, 38%)" stroke="none"></circle><circle r="12.5" cx="160" cy="213.33333333333334" fill="hsl(261, 60%, 38%)" stroke="none"></circle><circle r="12.5" cx="240" cy="213.33333333333334" fill="hsl(261, 60%, 38%)" stroke="none"></circle><circle r="12.5" cx="320" cy="213.33333333333334" fill="hsl(261, 60%, 38%)" stroke="none"></circle><circle r="12.5" cx="400" cy="213.33333333333334" fill="hsl(261, 60%, 38%)" stroke="none"></circle><circle r="12.5" cx="480" cy="213.33333333333334" fill="hsl(261, 60%, 38%)" stroke="none"></circle><circle r="12.5" cx="560" cy="213.33333333333334" fill="hsl(261, 60%, 38%)" stroke="none"></circle><circle r="12.5" cx="640" cy="213.33333333333334" fill="hsl(261, 60%, 38%)" stroke="none"></circle><circle r="12.5" cx="720" cy="213.33333333333334" fill="hsl(261, 60%, 38%)" stroke="none"></circle><circle r="12.5" cx="800" cy="213.33333333333334" fill="hsl(261, 60%, 38%)" stroke="none"></circle><circle r="12.5" cx="0" cy="266.6666666666667" fill="hsl(261, 60%, 38%)" stroke="none"></circle><circle r="12.5" cx="80" cy="266.6666666666667" fill="hsl(261, 60%, 38%)" stroke="none"></circle><circle r="12.5" cx="160" cy="266.6666666666667" fill="hsl(261, 60%, 38%)" stroke="none"></circle><circle r="12.5" cx="240" cy="266.6666666666667" fill="hsl(261, 60%, 38%)" stroke="none"></circle><circle r="12.5" cx="320" cy="266.6666666666667" fill="hsl(261, 60%, 38%)" stroke="none"></circle><circle r="12.5" cx="400" cy="266.6666666666667" fill="hsl(261, 60%, 38%)" stroke="none"></circle><circle r="12.5" cx="480" cy="266.6666666666667" fill="hsl(261, 60%, 38%)" stroke="none"></circle><circle r="12.5" cx="560" cy="266.6666666666667" fill="hsl(261, 60%, 38%)" stroke="none"></circle><circle r="12.5" cx="640" cy="266.6666666666667" fill="hsl(261, 60%, 38%)" stroke="none"></circle><circle r="12.5" cx="720" cy="266.6666666666667" fill="hsl(261, 60%, 38%)" stroke="none"></circle><circle r="12.5" cx="800" cy="266.6666666666667" fill="hsl(261, 60%, 38%)" stroke="none"></circle><circle r="12.5" cx="0" cy="320" fill="hsl(261, 60%, 38%)" stroke="none"></circle><circle r="12.5" cx="80" cy="320" fill="hsl(261, 60%, 38%)" stroke="none"></circle><circle r="12.5" cx="160" cy="320" fill="hsl(261, 60%, 38%)" stroke="none"></circle><circle r="12.5" cx="240" cy="320" fill="hsl(261, 60%, 38%)" stroke="none"></circle><circle r="12.5" cx="320" cy="320" fill="hsl(261, 60%, 38%)" stroke="none"></circle><circle r="12.5" cx="400" cy="320" fill="hsl(261, 60%, 38%)" stroke="none"></circle><circle r="12.5" cx="480" cy="320" fill="hsl(261, 60%, 38%)" stroke="none"></circle><circle r="12.5" cx="560" cy="320" fill="hsl(261, 60%, 38%)" stroke="none"></circle><circle r="12.5" cx="640" cy="320" fill="hsl(261, 60%, 38%)" stroke="none"></circle><circle r="12.5" cx="720" cy="320" fill="hsl(261, 60%, 38%)" stroke="none"></circle><circle r="12.5" cx="800" cy="320" fill="hsl(261, 60%, 38%)" stroke="none"></circle><circle r="12.5" cx="0" cy="373.3333333333333" fill="hsl(261, 60%, 38%)" stroke="none"></circle><circle r="12.5" cx="80" cy="373.3333333333333" fill="hsl(261, 60%, 38%)" stroke="none"></circle><circle r="12.5" cx="160" cy="373.3333333333333" fill="hsl(261, 60%, 38%)" stroke="none"></circle><circle r="12.5" cx="240" cy="373.3333333333333" fill="hsl(261, 60%, 38%)" stroke="none"></circle><circle r="12.5" cx="320" cy="373.3333333333333" fill="hsl(261, 60%, 38%)" stroke="none"></circle><circle r="12.5" cx="400" cy="373.3333333333333" fill="hsl(261, 60%, 38%)" stroke="none"></circle><circle r="12.5" cx="480" cy="373.3333333333333" fill="hsl(261, 60%, 38%)" stroke="none"></circle><circle r="12.5" cx="560" cy="373.3333333333333" fill="hsl(261, 60%, 38%)" stroke="none"></circle><circle r="12.5" cx="640" cy="373.3333333333333" fill="hsl(261, 60%, 38%)" stroke="none"></circle><circle r="12.5" cx="720" cy="373.3333333333333" fill="hsl(261, 60%, 38%)" stroke="none"></circle><circle r="12.5" cx="800" cy="373.3333333333333" fill="hsl(261, 60%, 38%)" stroke="none"></circle><circle r="12.5" cx="0" cy="426.66666666666663" fill="hsl(261, 60%, 38%)" stroke="none"></circle><circle r="12.5" cx="80" cy="426.66666666666663" fill="hsl(261, 60%, 38%)" stroke="none"></circle><circle r="12.5" cx="160" cy="426.66666666666663" fill="hsl(261, 60%, 38%)" stroke="none"></circle><circle r="12.5" cx="240" cy="426.66666666666663" fill="hsl(261, 60%, 38%)" stroke="none"></circle><circle r="12.5" cx="320" cy="426.66666666666663" fill="hsl(261, 60%, 38%)" stroke="none"></circle><circle r="12.5" cx="400" cy="426.66666666666663" fill="hsl(261, 60%, 38%)" stroke="none"></circle><circle r="12.5" cx="480" cy="426.66666666666663" fill="hsl(261, 60%, 38%)" stroke="none"></circle><circle r="12.5" cx="560" cy="426.66666666666663" fill="hsl(261, 60%, 38%)" stroke="none"></circle><circle r="12.5" cx="640" cy="426.66666666666663" fill="hsl(261, 60%, 38%)" stroke="none"></circle><circle r="12.5" cx="720" cy="426.66666666666663" fill="hsl(261, 60%, 38%)" stroke="none"></circle><circle r="12.5" cx="800" cy="426.66666666666663" fill="hsl(261, 60%, 38%)" stroke="none"></circle><circle r="12.5" cx="0" cy="479.99999999999994" fill="hsl(261, 60%, 38%)" stroke="none"></circle><circle r="12.5" cx="80" cy="479.99999999999994" fill="hsl(261, 60%, 38%)" stroke="none"></circle><circle r="12.5" cx="160" cy="479.99999999999994" fill="hsl(261, 60%, 38%)" stroke="none"></circle><circle r="12.5" cx="240" cy="479.99999999999994" fill="hsl(261, 60%, 38%)" stroke="none"></circle><circle r="12.5" cx="320" cy="479.99999999999994" fill="hsl(261, 60%, 38%)" stroke="none"></circle><circle r="12.5" cx="400" cy="479.99999999999994" fill="hsl(261, 60%, 38%)" stroke="none"></circle><circle r="12.5" cx="480" cy="479.99999999999994" fill="hsl(261, 60%, 38%)" stroke="none"></circle><circle r="12.5" cx="560" cy="479.99999999999994" fill="hsl(261, 60%, 38%)" stroke="none"></circle><circle r="12.5" cx="640" cy="479.99999999999994" fill="hsl(261, 60%, 38%)" stroke="none"></circle><circle r="12.5" cx="720" cy="479.99999999999994" fill="hsl(261, 60%, 38%)" stroke="none"></circle><circle r="12.5" cx="800" cy="479.99999999999994" fill="hsl(261, 60%, 38%)" stroke="none"></circle><circle r="12.5" cx="0" cy="533.3333333333333" fill="hsl(261, 60%, 38%)" stroke="none"></circle><circle r="12.5" cx="80" cy="533.3333333333333" fill="hsl(261, 60%, 38%)" stroke="none"></circle><circle r="12.5" cx="160" cy="533.3333333333333" fill="hsl(261, 60%, 38%)" stroke="none"></circle><circle r="12.5" cx="240" cy="533.3333333333333" fill="hsl(261, 60%, 38%)" stroke="none"></circle><circle r="12.5" cx="320" cy="533.3333333333333" fill="hsl(261, 60%, 38%)" stroke="none"></circle><circle r="12.5" cx="400" cy="533.3333333333333" fill="hsl(261, 60%, 38%)" stroke="none"></circle><circle r="12.5" cx="480" cy="533.3333333333333" fill="hsl(261, 60%, 38%)" stroke="none"></circle><circle r="12.5" cx="560" cy="533.3333333333333" fill="hsl(261, 60%, 38%)" stroke="none"></circle><circle r="12.5" cx="640" cy="533.3333333333333" fill="hsl(261, 60%, 38%)" stroke="none"></circle><circle r="12.5" cx="720" cy="533.3333333333333" fill="hsl(261, 60%, 38%)" stroke="none"></circle><circle r="12.5" cx="800" cy="533.3333333333333" fill="hsl(261, 60%, 38%)" stroke="none"></circle><circle r="12.5" cx="0" cy="586.6666666666666" fill="hsl(261, 60%, 38%)" stroke="none"></circle><circle r="12.5" cx="80" cy="586.6666666666666" fill="hsl(261, 60%, 38%)" stroke="none"></circle><circle r="12.5" cx="160" cy="586.6666666666666" fill="hsl(261, 60%, 38%)" stroke="none"></circle><circle r="12.5" cx="240" cy="586.6666666666666" fill="hsl(261, 60%, 38%)" stroke="none"></circle><circle r="12.5" cx="320" cy="586.6666666666666" fill="hsl(261, 60%, 38%)" stroke="none"></circle><circle r="12.5" cx="400" cy="586.6666666666666" fill="hsl(261, 60%, 38%)" stroke="none"></circle><circle r="12.5" cx="480" cy="586.6666666666666" fill="hsl(261, 60%, 38%)" stroke="none"></circle><circle r="12.5" cx="560" cy="586.6666666666666" fill="hsl(261, 60%, 38%)" stroke="none"></circle><circle r="12.5" cx="640" cy="586.6666666666666" fill="hsl(261, 60%, 38%)" stroke="none"></circle><circle r="12.5" cx="720" cy="586.6666666666666" fill="hsl(261, 60%, 38%)" stroke="none"></circle><circle r="12.5" cx="800" cy="586.6666666666666" fill="hsl(261, 60%, 38%)" stroke="none"></circle><circle r="12.5" cx="0" cy="640" fill="hsl(261, 60%, 38%)" stroke="none"></circle><circle r="12.5" cx="80" cy="640" fill="hsl(261, 60%, 38%)" stroke="none"></circle><circle r="12.5" cx="160" cy="640" fill="hsl(261, 60%, 38%)" stroke="none"></circle><circle r="12.5" cx="240" cy="640" fill="hsl(261, 60%, 38%)" stroke="none"></circle><circle r="12.5" cx="320" cy="640" fill="hsl(261, 60%, 38%)" stroke="none"></circle><circle r="12.5" cx="400" cy="640" fill="hsl(261, 60%, 38%)" stroke="none"></circle><circle r="12.5" cx="480" cy="640" fill="hsl(261, 60%, 38%)" stroke="none"></circle><circle r="12.5" cx="560" cy="640" fill="hsl(261, 60%, 38%)" stroke="none"></circle><circle r="12.5" cx="640" cy="640" fill="hsl(261, 60%, 38%)" stroke="none"></circle><circle r="12.5" cx="720" cy="640" fill="hsl(261, 60%, 38%)" stroke="none"></circle><circle r="12.5" cx="800" cy="640" fill="hsl(261, 60%, 38%)" stroke="none"></circle><circle r="12.5" cx="0" cy="693.3333333333334" fill="hsl(261, 60%, 38%)" stroke="none"></circle><circle r="12.5" cx="80" cy="693.3333333333334" fill="hsl(261, 60%, 38%)" stroke="none"></circle><circle r="12.5" cx="160" cy="693.3333333333334" fill="hsl(261, 60%, 38%)" stroke="none"></circle><circle r="12.5" cx="240" cy="693.3333333333334" fill="hsl(261, 60%, 38%)" stroke="none"></circle><circle r="12.5" cx="320" cy="693.3333333333334" fill="hsl(261, 60%, 38%)" stroke="none"></circle><circle r="12.5" cx="400" cy="693.3333333333334" fill="hsl(261, 60%, 38%)" stroke="none"></circle><circle r="12.5" cx="480" cy="693.3333333333334" fill="hsl(261, 60%, 38%)" stroke="none"></circle><circle r="12.5" cx="560" cy="693.3333333333334" fill="hsl(261, 60%, 38%)" stroke="none"></circle><circle r="12.5" cx="640" cy="693.3333333333334" fill="hsl(261, 60%, 38%)" stroke="none"></circle><circle r="12.5" cx="720" cy="693.3333333333334" fill="hsl(261, 60%, 38%)" stroke="none"></circle><circle r="12.5" cx="800" cy="693.3333333333334" fill="hsl(261, 60%, 38%)" stroke="none"></circle><circle r="12.5" cx="0" cy="746.6666666666667" fill="hsl(261, 60%, 38%)" stroke="none"></circle><circle r="12.5" cx="80" cy="746.6666666666667" fill="hsl(261, 60%, 38%)" stroke="none"></circle><circle r="12.5" cx="160" cy="746.6666666666667" fill="hsl(261, 60%, 38%)" stroke="none"></circle><circle r="12.5" cx="240" cy="746.6666666666667" fill="hsl(261, 60%, 38%)" stroke="none"></circle><circle r="12.5" cx="320" cy="746.6666666666667" fill="hsl(261, 60%, 38%)" stroke="none"></circle><circle r="12.5" cx="400" cy="746.6666666666667" fill="hsl(261, 60%, 38%)" stroke="none"></circle><circle r="12.5" cx="480" cy="746.6666666666667" fill="hsl(261, 60%, 38%)" stroke="none"></circle><circle r="12.5" cx="560" cy="746.6666666666667" fill="hsl(261, 60%, 38%)" stroke="none"></circle><circle r="12.5" cx="640" cy="746.6666666666667" fill="hsl(261, 60%, 38%)" stroke="none"></circle><circle r="12.5" cx="720" cy="746.6666666666667" fill="hsl(261, 60%, 38%)" stroke="none"></circle><circle r="12.5" cx="800" cy="746.6666666666667" fill="hsl(261, 60%, 38%)" stroke="none"></circle><circle r="12.5" cx="0" cy="800.0000000000001" fill="hsl(261, 60%, 38%)" stroke="none"></circle><circle r="12.5" cx="80" cy="800.0000000000001" fill="hsl(261, 60%, 38%)" stroke="none"></circle><circle r="12.5" cx="160" cy="800.0000000000001" fill="hsl(261, 60%, 38%)" stroke="none"></circle><circle r="12.5" cx="240" cy="800.0000000000001" fill="hsl(261, 60%, 38%)" stroke="none"></circle><circle r="12.5" cx="320" cy="800.0000000000001" fill="hsl(261, 60%, 38%)" stroke="none"></circle><circle r="12.5" cx="400" cy="800.0000000000001" fill="hsl(261, 60%, 38%)" stroke="none"></circle><circle r="12.5" cx="480" cy="800.0000000000001" fill="hsl(261, 60%, 38%)" stroke="none"></circle><circle r="12.5" cx="560" cy="800.0000000000001" fill="hsl(261, 60%, 38%)" stroke="none"></circle><circle r="12.5" cx="640" cy="800.0000000000001" fill="hsl(261, 60%, 38%)" stroke="none"></circle><circle r="12.5" cx="720" cy="800.0000000000001" fill="hsl(261, 60%, 38%)" stroke="none"></circle><circle r="12.5" cx="800" cy="800.0000000000001" fill="hsl(261, 60%, 38%)" stroke="none"></circle></g></svg>