<svg xmlns="http://www.w3.org/2000/svg" version="1.1" xmlns:xlink="http://www.w3.org/1999/xlink" xmlns:svgjs="http://svgjs.dev/svgjs" viewBox="0 0 800 800" opacity="1"><defs><linearGradient x1="50%" y1="0%" x2="50%" y2="100%" id="ssscribble-grad"><stop stop-color="hsl(196, 73%, 71%)" stop-opacity="1" offset="0%"></stop><stop stop-color="hsl(196, 73%, 63%)" stop-opacity="1" offset="100%"></stop></linearGradient></defs><g fill="none" stroke-width="1.5" stroke="url(#ssscribble-grad)" stroke-linecap="round"><path d="M780.78 387.64C788.39 411.04 784.95 431.99 771.58 450.49 751.94 469.1 727 485.5 700.13 499.98 674.9 515.1 652.15 529.11 633 542.67 618.98 558.15 608.19 574.52 599.46 592.46 593.85 613.48 587.9 636.65 580.45 661.59 573.44 688.28 563.61 714.73 550.75 738.87 537.44 760 521.14 775.07 502.2 782.05 483.04 782.35 461.61 773.93 438.21 757.7 414.81 738.67 390.53 717.73 365.56 697.84 340.37 682.52 314.09 671.15 286.84 663.85 259.14 662.04 230.43 662.36 201.37 663.2 172.75 665.64 145.1 665.68 120.04 662.35 89.62 652.99 66.45 611.31 75.41 581.64 85.12 560.08 96.75 537.1 107.35 513.57 111.69 489.77 110.39 465.92 102.78 442.51 87.72 419.11 70.77 397.27 55.38 376.92 41.98 356.33 35.91 336.72 38.28 317.74 47.28 297.73 64.29 277.41 87.26 256.3 113.6 233.29 142.37 208.8 171.55 182.93 199.86 155.59 226.81 127.8 251.98 100.99 275.12 75.79 296.96 54.47 318.03 39.13 337.87 29.27 358 27.33 378.87 33.61 399.42 44.48 421.36 60.67 444.76 79.7 468.16 95.93 491.93 109.09 515.51 117.82 538.77 119.87 561.22 118.12 581.93 114.14 627.53 102.76 651.95 134.38 649.47 163.59 650.87 186.1 654.85 210.63 663 236.06 677.78 262.14 697.17 288.31 719.6 313.84 744.02 339.47 765.72 364.23 780.78 387.63Q780.78 387.64 780.78 387.64" opacity="0.99"></path><path d="M724.23 353.45C731.2 372.95 730.17 391.41 721.73 408.83 708.31 426.44 689.72 443.37 667.99 459.86 645.54 477.06 622.89 494.44 601.36 512.28 582.26 531.43 565.15 551.56 549.97 572.62 537.46 594.91 526 617.77 514.92 640.41 505.29 662.67 494.92 683.06 483.28 700.14 465.56 718.42 420.21 719.05 392.07 701.1 372.57 685.31 351.76 667.62 330.04 649.87 308.38 634.61 285.96 621.35 263.35 610.56 241.2 603.69 219.45 598.81 199.02 595.22 145.54 576.61 158.57 525.53 168.21 501.1 169.13 484.08 166.2 465.69 159.23 446.19 147.08 426.69 133.62 407 120.86 387.24 108.36 367.31 100.17 346.99 97.31 326.26 98.42 305.02 105.62 283.05 118.17 260.46 134.24 237.34 154.11 213.79 176.37 190.42 199.91 167.49 224.27 145.86 248.51 126.71 272.53 110 295.92 97.38 318.4 89.96 340.39 86.45 361.7 88.61 382.3 96.34 402.72 106.56 422.75 120.31 442.25 136.09 461.75 149.93 479.81 162.13 496.17 171.72 554.39 173.17 580.82 181.54 586.68 196.39 594.44 208.6 604.73 223.34 617.91 239.94 635.07 257.24 654.36 275.79 674.38 294.96 694.67 314.32 712.08 333.95 724.23 353.45Q724.23 353.45 724.23 353.45" opacity="0.76"></path><path d="M667.78 357.69C675.99 388.89 662.9 421.66 634.48 455.27 599.85 490.07 561.62 527.17 525.59 564.53 494.23 601.34 465.52 634.07 438.06 656.3 412.75 668.93 384.88 665.27 353.68 644.7 322.47 619.19 290.89 590.13 262.12 564.07 225.51 540.22 203.68 508.67 218 485.24 223.55 467.71 223.99 443.16 215.78 411.96 194.48 380.75 174.41 345.85 163.11 309.31 158.59 272.86 169.75 235.76 193.13 202.25 222.94 173.09 258.72 153.23 295.11 147.59 332.23 150.77 367.68 167.18 398.88 192.69 430.09 213.26 454.09 229.58 471.05 239.82 488.74 240.46 501.66 240.83 512.75 244.91 530.26 248.45 552.2 260.05 579.59 279.33 613.76 299.79 646.48 326.48 667.78 357.68Q667.78 357.69 667.78 357.69" opacity="0.87"></path><path d="M611.25 396.59C618.88 420 613.22 446.24 596.95 473.64 575.2 500.87 547.69 528.64 518.55 554.25 489.5 577.63 460.95 595.98 434.28 605.92 408.38 610.23 383.36 604.37 359.95 588.14 336.55 569.1 316.98 546.23 302.32 523.29 284.45 495.16 278.65 449.56 284.59 426.07 283.7 410.5 279.88 391.12 272.25 367.72 257.18 344.32 243.08 319.1 233.33 294.11 225.13 258.78 254.92 212.36 285.96 210.93 308.97 216.71 333.26 230.1 356.66 249.13 380.06 265.36 400.37 280.71 417.92 293.56 436.63 300.77 454.77 307.25 473.41 314.54 495.65 319.6 520.2 328.36 545.69 341.68 572.6 354.84 596.18 373.19 611.25 396.59Q611.25 396.59 611.25 396.59" opacity="0.58"></path><path d="M554.78 438.37C562.99 469.57 544.23 503.67 512.08 529.37 475.53 549.38 436.06 552.27 404.86 531.7 373.66 506.19 356.62 471.81 352.28 439.28 343.53 411.42 336.99 381.32 328.78 350.12 301.28 305.71 314.26 275.65 356.26 305.7 387.46 326.27 422.38 348.68 457.55 369.57 495.78 384.77 533.48 407.16 554.78 438.37Q554.78 438.37 554.78 438.37" opacity="0.51"></path></g></svg>