<!--?xml version="1.0" standalone="no"?-->
              <svg id="sw-js-blob-svg" viewBox="0 0 100 100" xmlns="http://www.w3.org/2000/svg" version="1.1">
                    <defs> 
                        <linearGradient id="sw-gradient" x1="0" x2="1" y1="1" y2="0">
                            <stop id="stop1" stop-color="rgba(248, 117, 55, 1)" offset="0%"></stop>
                            <stop id="stop2" stop-color="rgba(251, 168, 31, 1)" offset="100%"></stop>
                        </linearGradient>
                    </defs>
                <path fill="url(#sw-gradient)" d="M20.4,-28.7C26.8,-27.6,32.7,-22.6,34.6,-16.4C36.4,-10.2,34.3,-2.8,32.4,4C30.4,10.9,28.7,17.1,25.1,22.4C21.5,27.6,16.1,32,10.7,31.2C5.3,30.4,-0.1,24.6,-4.5,20.8C-8.9,17,-12.2,15.3,-17,12.9C-21.7,10.6,-27.8,7.8,-31.2,2.8C-34.6,-2.2,-35.2,-9.3,-32.3,-14.4C-29.4,-19.5,-23,-22.6,-17,-23.9C-11,-25.1,-5.5,-24.5,0.7,-25.6C7,-26.8,14,-29.7,20.4,-28.7Z" width="100%" height="100%" transform="translate(50 50)" stroke-width="0" style="transition: all 0.3s ease 0s;"></path>
              </svg>