<!--?xml version="1.0" standalone="no"?-->
              <svg id="sw-js-blob-svg" viewBox="0 0 100 100" xmlns="http://www.w3.org/2000/svg" version="1.1">
                    <defs> 
                        <linearGradient id="sw-gradient" x1="0" x2="1" y1="1" y2="0">
                            <stop id="stop1" stop-color="rgba(248, 117, 55, 1)" offset="0%"></stop>
                            <stop id="stop2" stop-color="rgba(251, 168, 31, 1)" offset="100%"></stop>
                        </linearGradient>
                    </defs>
                <path fill="url(#sw-gradient)" d="M14,-19.2C21.2,-17.2,32.1,-18.4,36.2,-14.9C40.4,-11.4,37.8,-3.2,36.2,4.9C34.6,13,34,21,29.4,24.4C24.7,27.8,16.1,26.6,9.3,26C2.5,25.5,-2.5,25.4,-9.3,26C-16.1,26.6,-24.7,27.7,-31.6,24.7C-38.6,21.6,-43.7,14.3,-41.2,8.1C-38.6,1.9,-28.3,-3.1,-23.6,-9.7C-18.9,-16.2,-19.8,-24.2,-16.8,-28.2C-13.8,-32.1,-6.9,-32,-1.7,-29.2C3.4,-26.5,6.8,-21.2,14,-19.2Z" width="100%" height="100%" transform="translate(50 50)" stroke-width="0" style="transition: all 0.3s ease 0s;"></path>
              </svg>